<svg width="29" height="28" viewBox="0 0 29 28" fill="none" xmlns="http://www.w3.org/2000/svg">
<path fill-rule="evenodd" clip-rule="evenodd" d="M7.50005 2.80017C7.87135 2.80017 8.22745 2.94767 8.49 3.21022C8.75255 3.47277 8.90005 3.82887 8.90005 4.20017V5.60017H10.3C10.6714 5.60017 11.0274 5.74767 11.29 6.01022C11.5525 6.27277 11.7 6.62887 11.7 7.00017C11.7 7.37147 11.5525 7.72757 11.29 7.99012C11.0274 8.25267 10.6714 8.40017 10.3 8.40017H8.90005V9.80017C8.90005 10.1715 8.75255 10.5276 8.49 10.7901C8.22745 11.0527 7.87135 11.2002 7.50005 11.2002C7.12875 11.2002 6.77265 11.0527 6.5101 10.7901C6.24755 10.5276 6.10005 10.1715 6.10005 9.80017V8.40017H4.70005C4.32875 8.40017 3.97265 8.25267 3.7101 7.99012C3.44755 7.72757 3.30005 7.37147 3.30005 7.00017C3.30005 6.62887 3.44755 6.27277 3.7101 6.01022C3.97265 5.74767 4.32875 5.60017 4.70005 5.60017H6.10005V4.20017C6.10005 3.82887 6.24755 3.47277 6.5101 3.21022C6.77265 2.94767 7.12875 2.80017 7.50005 2.80017ZM7.50005 16.8002C7.87135 16.8002 8.22745 16.9477 8.49 17.2102C8.75255 17.4728 8.90005 17.8289 8.90005 18.2002V19.6002H10.3C10.6714 19.6002 11.0274 19.7477 11.29 20.0102C11.5525 20.2728 11.7 20.6289 11.7 21.0002C11.7 21.3715 11.5525 21.7276 11.29 21.9901C11.0274 22.2527 10.6714 22.4002 10.3 22.4002H8.90005V23.8002C8.90005 24.1715 8.75255 24.5276 8.49 24.7901C8.22745 25.0527 7.87135 25.2002 7.50005 25.2002C7.12875 25.2002 6.77265 25.0527 6.5101 24.7901C6.24755 24.5276 6.10005 24.1715 6.10005 23.8002V22.4002H4.70005C4.32875 22.4002 3.97265 22.2527 3.7101 21.9901C3.44755 21.7276 3.30005 21.3715 3.30005 21.0002C3.30005 20.6289 3.44755 20.2728 3.7101 20.0102C3.97265 19.7477 4.32875 19.6002 4.70005 19.6002H6.10005V18.2002C6.10005 17.8289 6.24755 17.4728 6.5101 17.2102C6.77265 16.9477 7.12875 16.8002 7.50005 16.8002ZM17.3 2.80017C17.609 2.80007 17.9093 2.90218 18.1542 3.09058C18.3991 3.27899 18.5748 3.5431 18.6538 3.84177L20.3044 10.0802L25 12.7878C25.2129 12.9107 25.3896 13.0874 25.5124 13.3002C25.6353 13.513 25.7 13.7544 25.7 14.0002C25.7 14.2459 25.6353 14.4873 25.5124 14.7001C25.3896 14.913 25.2129 15.0897 25 15.2126L20.3044 17.9216L18.6524 24.1586C18.5732 24.457 18.3976 24.7208 18.1529 24.909C17.9081 25.0972 17.6081 25.1992 17.2993 25.1992C16.9906 25.1992 16.6906 25.0972 16.4458 24.909C16.2011 24.7208 16.0255 24.457 15.9462 24.1586L14.2956 17.9202L9.60005 15.2126C9.38724 15.0897 9.21052 14.913 9.08766 14.7001C8.96479 14.4873 8.90011 14.2459 8.90011 14.0002C8.90011 13.7544 8.96479 13.513 9.08766 13.3002C9.21052 13.0874 9.38724 12.9107 9.60005 12.7878L14.2956 10.0788L15.9476 3.84177C16.0267 3.54333 16.2021 3.27939 16.4467 3.09101C16.6913 2.90263 16.9913 2.80038 17.3 2.80017Z" fill="#FFD706"/>
</svg>
